<svg width="2048" height="2048" viewBox="0 0 2048 2048" fill="none" xmlns="http://www.w3.org/2000/svg">
  <defs>
    <linearGradient id="bg" x1="220" y1="120" x2="1820" y2="1900" gradientUnits="userSpaceOnUse">
      <stop stop-color="#030712"/>
      <stop offset="0.48" stop-color="#07162E"/>
      <stop offset="1" stop-color="#020617"/>
    </linearGradient>
    <radialGradient id="violetGlow" cx="0" cy="0" r="1" gradientUnits="userSpaceOnUse" gradientTransform="translate(880 860) rotate(29.6) scale(720 640)">
      <stop stop-color="#8B5CF6" stop-opacity="0.48"/>
      <stop offset="1" stop-color="#8B5CF6" stop-opacity="0"/>
    </radialGradient>
    <radialGradient id="cyanGlow" cx="0" cy="0" r="1" gradientUnits="userSpaceOnUse" gradientTransform="translate(1220 1040) rotate(31.2) scale(760 680)">
      <stop stop-color="#22D3EE" stop-opacity="0.42"/>
      <stop offset="1" stop-color="#22D3EE" stop-opacity="0"/>
    </radialGradient>
    <linearGradient id="markGradient" x1="676" y1="676" x2="1372" y2="1372" gradientUnits="userSpaceOnUse">
      <stop stop-color="#8B5CF6"/>
      <stop offset="1" stop-color="#22D3EE"/>
    </linearGradient>
    <linearGradient id="ringStroke" x1="396" y1="348" x2="1660" y2="1732" gradientUnits="userSpaceOnUse">
      <stop stop-color="#8B5CF6" stop-opacity="0.54"/>
      <stop offset="1" stop-color="#22D3EE" stop-opacity="0.68"/>
    </linearGradient>
    <filter id="glowBlur" x="148" y="148" width="1752" height="1752" filterUnits="userSpaceOnUse" color-interpolation-filters="sRGB">
      <feGaussianBlur stdDeviation="86"/>
    </filter>
    <filter id="markShadow" x="530" y="530" width="988" height="988" filterUnits="userSpaceOnUse" color-interpolation-filters="sRGB">
      <feDropShadow dx="0" dy="28" stdDeviation="54" flood-color="#020617" flood-opacity="0.58"/>
      <feDropShadow dx="0" dy="0" stdDeviation="18" flood-color="#22D3EE" flood-opacity="0.22"/>
    </filter>
  </defs>

  <rect width="2048" height="2048" rx="512" fill="url(#bg)"/>
  <rect width="2048" height="2048" rx="512" fill="url(#violetGlow)"/>
  <rect width="2048" height="2048" rx="512" fill="url(#cyanGlow)"/>

  <g opacity="0.14">
    <path d="M0 512H2048" stroke="white" stroke-opacity="0.14"/>
    <path d="M0 1024H2048" stroke="white" stroke-opacity="0.18"/>
    <path d="M0 1536H2048" stroke="white" stroke-opacity="0.14"/>
    <path d="M512 0V2048" stroke="white" stroke-opacity="0.14"/>
    <path d="M1024 0V2048" stroke="white" stroke-opacity="0.18"/>
    <path d="M1536 0V2048" stroke="white" stroke-opacity="0.14"/>
  </g>

  <g filter="url(#glowBlur)" opacity="0.42">
    <circle cx="960" cy="936" r="364" fill="#8B5CF6"/>
    <circle cx="1136" cy="1088" r="332" fill="#22D3EE"/>
  </g>

  <circle cx="1024" cy="1024" r="612" stroke="url(#ringStroke)" stroke-width="2.4" stroke-opacity="0.32"/>
  <circle cx="1024" cy="1024" r="704" stroke="url(#ringStroke)" stroke-width="1.4" stroke-opacity="0.2"/>

  <g filter="url(#markShadow)">
    <rect x="652" y="652" width="744" height="744" rx="198" fill="url(#markGradient)"/>
    <rect x="652" y="652" width="744" height="744" rx="198" stroke="white" stroke-opacity="0.12" stroke-width="2"/>
    <path
      d="M870 885C973.286 885 1060.95 1164 1169.32 1164C1216.35 1164 1245.66 1136.4 1245.66 1094.71C1245.66 1051.84 1212.9 1025.33 1167.56 1025.33C1057.56 1025.33 974.566 1304.33 868.749 1304.33C816.184 1304.33 777.333 1268.97 777.333 1217.81C777.333 1169.67 814.874 1135.67 870 1135.67"
      stroke="rgba(255,255,255,0.94)"
      stroke-width="56"
      stroke-linecap="round"
      stroke-linejoin="round"
    />
    <path d="M892 892L1156 1156M1156 892L892 1156" stroke="rgba(255,255,255,0.78)" stroke-width="44" stroke-linecap="round"/>
  </g>

  <rect x="708" y="708" width="632" height="632" rx="164" stroke="white" stroke-opacity="0.08" stroke-width="2"/>
  <circle cx="564" cy="704" r="8" fill="#22D3EE" fill-opacity="0.58"/>
  <circle cx="1486" cy="612" r="10" fill="#8B5CF6" fill-opacity="0.58"/>
  <circle cx="1470" cy="1452" r="8" fill="#22D3EE" fill-opacity="0.52"/>
  <circle cx="640" cy="1518" r="10" fill="#8B5CF6" fill-opacity="0.52"/>
</svg>
