<svg width="3840" height="2160" viewBox="0 0 3840 2160" fill="none" xmlns="http://www.w3.org/2000/svg">
  <defs>
    <linearGradient id="bg" x1="420" y1="180" x2="3320" y2="1980" gradientUnits="userSpaceOnUse">
      <stop stop-color="#030712"/>
      <stop offset="0.42" stop-color="#081227"/>
      <stop offset="1" stop-color="#020617"/>
    </linearGradient>
    <radialGradient id="glowLeft" cx="0" cy="0" r="1" gradientUnits="userSpaceOnUse" gradientTransform="translate(1320 920) rotate(33.128) scale(980 760)">
      <stop stop-color="#8B5CF6" stop-opacity="0.52"/>
      <stop offset="1" stop-color="#8B5CF6" stop-opacity="0"/>
    </radialGradient>
    <radialGradient id="glowRight" cx="0" cy="0" r="1" gradientUnits="userSpaceOnUse" gradientTransform="translate(2360 980) rotate(25.906) scale(1040 820)">
      <stop stop-color="#22D3EE" stop-opacity="0.48"/>
      <stop offset="1" stop-color="#22D3EE" stop-opacity="0"/>
    </radialGradient>
    <linearGradient id="cardGradient" x1="1510" y1="640" x2="2330" y2="1460" gradientUnits="userSpaceOnUse">
      <stop stop-color="#8B5CF6"/>
      <stop offset="1" stop-color="#22D3EE"/>
    </linearGradient>
    <linearGradient id="ringStroke" x1="1050" y1="370" x2="2790" y2="1790" gradientUnits="userSpaceOnUse">
      <stop stop-color="#8B5CF6" stop-opacity="0.55"/>
      <stop offset="1" stop-color="#22D3EE" stop-opacity="0.7"/>
    </linearGradient>
    <filter id="softBlur" x="-240" y="-240" width="4320" height="2640" filterUnits="userSpaceOnUse" color-interpolation-filters="sRGB">
      <feGaussianBlur stdDeviation="80"/>
    </filter>
    <filter id="cardShadow" x="1240" y="560" width="1360" height="1360" filterUnits="userSpaceOnUse" color-interpolation-filters="sRGB">
      <feDropShadow dx="0" dy="40" stdDeviation="70" flood-color="#030712" flood-opacity="0.55"/>
      <feDropShadow dx="0" dy="0" stdDeviation="22" flood-color="#22D3EE" flood-opacity="0.22"/>
    </filter>
  </defs>

  <rect width="3840" height="2160" fill="url(#bg)"/>
  <rect width="3840" height="2160" fill="url(#glowLeft)"/>
  <rect width="3840" height="2160" fill="url(#glowRight)"/>

  <g opacity="0.14">
    <path d="M0 360H3840" stroke="white" stroke-opacity="0.18"/>
    <path d="M0 720H3840" stroke="white" stroke-opacity="0.16"/>
    <path d="M0 1080H3840" stroke="white" stroke-opacity="0.2"/>
    <path d="M0 1440H3840" stroke="white" stroke-opacity="0.16"/>
    <path d="M0 1800H3840" stroke="white" stroke-opacity="0.18"/>
    <path d="M640 0V2160" stroke="white" stroke-opacity="0.18"/>
    <path d="M1280 0V2160" stroke="white" stroke-opacity="0.15"/>
    <path d="M1920 0V2160" stroke="white" stroke-opacity="0.2"/>
    <path d="M2560 0V2160" stroke="white" stroke-opacity="0.15"/>
    <path d="M3200 0V2160" stroke="white" stroke-opacity="0.18"/>
  </g>

  <g filter="url(#softBlur)" opacity="0.34">
    <circle cx="1920" cy="1050" r="740" fill="#8B5CF6"/>
    <circle cx="2140" cy="980" r="620" fill="#22D3EE"/>
  </g>

  <circle cx="1920" cy="1050" r="860" stroke="url(#ringStroke)" stroke-width="2.2" stroke-opacity="0.32"/>
  <circle cx="1920" cy="1050" r="960" stroke="url(#ringStroke)" stroke-width="1.5" stroke-opacity="0.22"/>
  <circle cx="1920" cy="1050" r="1080" stroke="url(#ringStroke)" stroke-width="1" stroke-opacity="0.14"/>

  <g filter="url(#cardShadow)">
    <rect x="1470" y="600" width="900" height="900" rx="240" fill="url(#cardGradient)"/>
    <rect x="1470" y="600" width="900" height="900" rx="240" stroke="white" stroke-opacity="0.12" stroke-width="2"/>
    <path
      d="M1740 883.5C1864.93 883.5 1972.62 1206.67 2101.9 1206.67C2157.9 1206.67 2192.35 1174.37 2192.35 1125.97C2192.35 1076.17 2153.58 1045.13 2099.75 1045.13C1968.21 1045.13 1866.95 1368.3 1739.07 1368.3C1676.6 1368.3 1631.25 1327.33 1631.25 1268.17C1631.25 1212.23 1674.45 1172.33 1740 1172.33"
      stroke="rgba(255,255,255,0.94)"
      stroke-width="67"
      stroke-linecap="round"
      stroke-linejoin="round"
    />
    <path d="M1761 894L2079 1212M2079 894L1761 1212" stroke="rgba(255,255,255,0.76)" stroke-width="54" stroke-linecap="round"/>
  </g>

  <g opacity="0.78">
    <rect x="1534" y="664" width="772" height="772" rx="188" stroke="white" stroke-opacity="0.08" stroke-width="2"/>
  </g>

  <text x="1920" y="1762" fill="white" font-family="SF Pro Display, Inter, Arial, sans-serif" font-size="194" font-weight="700" letter-spacing="-5" text-anchor="middle">Xeivora</text>
  <text x="1920" y="1868" fill="#C7D2FE" fill-opacity="0.84" font-family="SF Pro Display, Inter, Arial, sans-serif" font-size="62" font-weight="500" letter-spacing="10" text-anchor="middle">UNIFIED AI INTELLIGENCE</text>

  <g opacity="0.56">
    <circle cx="1110" cy="560" r="8" fill="#22D3EE"/>
    <circle cx="2730" cy="640" r="10" fill="#8B5CF6"/>
    <circle cx="2920" cy="1450" r="8" fill="#22D3EE"/>
    <circle cx="990" cy="1500" r="10" fill="#8B5CF6"/>
  </g>
</svg>
